<?xml version="1.0" standalone="no"?>
<!DOCTYPE svg PUBLIC "-//W3C//DTD SVG 20010904//EN"
 "http://www.w3.org/TR/2001/REC-SVG-20010904/DTD/svg10.dtd">
<svg version="1.0" xmlns="http://www.w3.org/2000/svg"
 width="300.000000pt" height="162.000000pt" viewBox="0 0 300.000000 162.000000"
 preserveAspectRatio="xMidYMid meet">
<metadata>
Created by potrace 1.10, written by Peter Selinger 2001-2011
</metadata>
<g transform="translate(0.000000,162.000000) scale(0.050000,-0.050000)"
fill="#d5e4eb" stroke="none">
<path d="M4387 3219 c-164 -32 -303 -127 -428 -292 -77 -103 -87 -110 -148
-98 -231 43 -518 -134 -644 -397 -53 -110 -64 -121 -161 -152 -224 -73 -393
-292 -395 -513 -1 -59 -2 -107 -3 -107 -2 0 -44 18 -95 41 -90 40 -325 59
-372 30 -11 -7 -33 19 -49 58 -160 382 -733 523 -1086 266 -78 -56 -120 -72
-220 -80 -233 -20 -401 -167 -447 -390 -19 -94 -41 -134 -122 -220 -341 -362
-230 -973 214 -1185 168 -80 332 -96 515 -50 l137 34 116 -62 c135 -72 271
-96 360 -65 36 12 57 13 51 2 -44 -71 273 16 414 114 l78 54 94 -34 c139 -49
285 -43 406 18 74 38 143 53 264 61 328 20 514 195 514 483 0 143 -77 314
-163 363 -31 17 -57 39 -57 47 0 8 566 15 1257 15 1363 0 1329 -2 1501 111
l82 54 0 133 -1 132 -40 -63 c-45 -70 -155 -148 -257 -184 -115 -39 -2581 -32
-2678 8 -416 174 -290 789 163 789 l88 0 10 100 c28 292 370 505 643 401 47
-18 54 -13 103 85 242 485 899 487 1134 3 46 -96 64 -104 124 -58 150 113 431
-36 431 -230 0 -36 16 -74 38 -93 21 -17 84 -74 140 -127 l102 -95 0 119 c0
102 -7 125 -48 157 -26 20 -62 85 -81 143 -66 204 -235 323 -455 320 l-133 -1
-55 79 c-128 184 -454 345 -547 270 -22 -18 -25 -17 -14 2 10 17 2 25 -27 25
-23 0 -38 -7 -32 -17 6 -9 -3 -16 -19 -16 -16 0 -29 7 -29 16 0 20 -59 19
-173 -4z m-2746 -1211 c164 -51 306 -203 360 -385 14 -46 27 -83 30 -83 2 0
36 14 76 30 303 127 653 -107 653 -436 l0 -72 97 11 c299 36 497 -304 316
-541 -78 -102 -119 -118 -336 -132 -164 -10 -205 -20 -274 -66 -131 -86 -278
-70 -446 50 -27 19 -45 11 -102 -50 -207 -220 -563 -246 -822 -61 l-97 70
-103 -46 c-631 -280 -1145 565 -620 1018 93 81 108 103 99 148 -39 196 171
399 381 368 79 -12 93 -7 194 76 184 150 349 178 594 101z m1320 -767 c-25
-16 -24 -21 7 -33 20 -8 42 -5 49 6 8 12 30 14 53 5 26 -11 30 -17 10 -18 -27
-1 -27 -4 0 -22 22 -16 5 -18 -60 -8 -121 18 -173 90 -64 89 29 -1 29 -3 5
-19z"/>
</g>
</svg>
