<?xml version="1.0" standalone="no"?>
<!DOCTYPE svg PUBLIC "-//W3C//DTD SVG 20010904//EN"
 "http://www.w3.org/TR/2001/REC-SVG-20010904/DTD/svg10.dtd">
<svg version="1.0" xmlns="http://www.w3.org/2000/svg"
 width="300.000000pt" height="69.000000pt" viewBox="0 0 300.000000 69.000000"
 preserveAspectRatio="xMidYMid meet">
<metadata>
Created by potrace 1.10, written by Peter Selinger 2001-2011
</metadata>
<g transform="translate(0.000000,69.000000) scale(0.050000,-0.050000)"
fill="#d5e4eb" stroke="none">
<path d="M0 1334 c0 -290 499 -551 850 -445 92 28 100 27 178 -18 259 -150
544 -142 785 22 l104 70 66 -36 c100 -53 284 -47 397 12 61 32 142 52 250 62
88 8 174 20 190 27 26 11 30 -18 30 -193 0 -491 414 -801 898 -671 84 22 96
20 220 -43 232 -118 516 -102 728 41 99 67 114 69 211 28 105 -44 227 -37 350
20 71 33 158 54 260 61 578 43 661 795 99 897 -53 10 -77 26 -86 58 -40 140
-52 154 -133 154 l-78 0 39 -75 c21 -42 44 -117 52 -168 l14 -93 128 -8 c318
-20 423 -391 164 -582 -40 -30 -100 -43 -240 -53 -141 -10 -203 -23 -256 -57
-114 -72 -321 -49 -398 43 -25 30 -35 26 -115 -48 -223 -206 -559 -219 -782
-30 l-65 55 -88 -43 c-574 -278 -1087 496 -613 925 146 132 145 134 -33 133
l-156 0 -36 -79 c-54 -116 -132 -154 -334 -164 -141 -7 -186 -18 -266 -65
-123 -72 -255 -65 -364 17 l-71 55 -100 -90 c-215 -193 -526 -206 -745 -30
l-76 61 -104 -45 c-269 -115 -601 4 -736 266 -47 90 -138 110 -138 29z"/>
</g>
</svg>
