<?xml version="1.0" standalone="no"?>
<!DOCTYPE svg PUBLIC "-//W3C//DTD SVG 20010904//EN"
 "http://www.w3.org/TR/2001/REC-SVG-20010904/DTD/svg10.dtd">
<svg version="1.0" xmlns="http://www.w3.org/2000/svg"
 width="300.000000pt" height="105.000000pt" viewBox="0 0 300.000000 105.000000"
 preserveAspectRatio="xMidYMid meet">
<metadata>
Created by potrace 1.10, written by Peter Selinger 2001-2011
</metadata>
<g transform="translate(0.000000,105.000000) scale(0.050000,-0.050000)"
fill="#d5e4eb" stroke="none">
<path d="M85 2075 c-49 -63 -86 -255 -49 -255 9 0 16 -22 16 -50 0 -27 -8 -50
-19 -50 -34 0 5 -182 61 -284 63 -115 169 -213 303 -280 l93 -46 1221 -6 1221
-5 -82 -85 c-290 -304 -65 -774 371 -774 92 0 156 -15 259 -60 159 -70 210
-73 360 -21 l110 38 105 -69 c109 -73 309 -129 417 -117 176 19 248 38 346 90
l108 58 111 -32 c698 -203 1205 654 702 1186 -74 79 -99 120 -99 166 0 205
-211 401 -432 401 -75 0 -116 15 -212 80 -345 230 -860 117 -1022 -224 l-35
-73 -147 0 c-106 1 -173 -11 -240 -40 l-92 -41 0 104 c0 129 -69 284 -159 360
-78 65 -481 86 -481 24 0 -23 25 -30 101 -30 406 0 539 -544 180 -734 l-89
-47 -1251 5 c-1238 6 -1252 6 -1331 49 -265 143 -353 491 -186 732 l39 55 -89
0 c-49 0 -98 -11 -109 -25z m4747 -171 c44 -23 110 -69 146 -102 58 -55 78
-61 179 -58 212 5 350 -122 346 -318 -1 -68 8 -95 42 -122 316 -248 359 -628
101 -894 -166 -171 -457 -222 -659 -116 -80 42 -85 42 -116 8 -193 -214 -606
-208 -834 12 l-72 70 -86 -57 c-117 -77 -278 -81 -375 -8 -55 42 -95 51 -253
60 -148 9 -200 20 -243 52 -273 204 -145 598 191 593 l116 -2 11 113 c27 258
278 444 524 387 167 -39 171 -39 198 40 114 326 492 491 784 342z m-1665 -768
c-5 -8 -30 -6 -56 3 -26 10 -50 17 -54 15 -4 -2 5 7 21 20 15 14 36 20 45 14
9 -6 18 1 18 16 1 14 9 8 18 -14 9 -22 12 -46 8 -54z"/>
</g>
</svg>
